<?xml version="1.0" standalone="no"?>
<!DOCTYPE svg PUBLIC "-//W3C//DTD SVG 1.1//EN" "http://www.w3.org/Graphics/SVG/1.1/DTD/svg11.dtd" >
<svg xmlns="http://www.w3.org/2000/svg">
<metadata>
This is a custom SVG font generated by IcoMoon.
<iconset grid="16"></iconset>
</metadata>
<defs>
<font id="FatiCons-Normal" horiz-adv-x="512" >
<font-face units-per-em="512" ascent="480" descent="-32" />
<missing-glyph horiz-adv-x="512" />
<glyph class="hidden" unicode="&#xf000;" d="M0,480L 512 -32L0 -32 z" horiz-adv-x="0" />
<glyph unicode="&#xe003;" d="M 256.544,251.328L 256.544,251.328c-0.096,0.016-0.192,0.016-0.288,0.016c-0.096,0-0.192,0-0.288,0l0-0.016 
			c-19.36-0.48-34.928-16.32-34.928-35.792s 15.552-35.328, 34.928-35.792l0-0.032 c 0.096,0, 0.192,0.032, 0.288,0.032
			c 0.080,0, 0.176-0.032, 0.288-0.032l0,0.032 c 19.504,0.464, 34.928,16.32, 34.928,35.792S 276.048,250.848, 256.544,251.328zM 468.592,244.496c-44.16,35.936-118.512,88.16-212.048,89.936l0,0 c-0.096,0-0.192,0-0.288,0c-0.096,0-0.192,0-0.288,0
			l0,0 c-93.504-1.776-167.936-54-212.096-89.936c-2.112-1.712-16.576-12.8-16.816-26.976c-0.176-9.984, 4.48-17.36, 11.184-23.536
			c 36.080-34.896, 114.816-96.944, 217.744-97.392l0-0.032 c 0.096,0, 0.192,0, 0.288,0c 0.080,0, 0.176,0, 0.288,0l0,0.032 
			c 103.12,0.448, 181.616,62.496, 217.712,97.392c 6.704,6.176, 11.344,13.552, 11.152,23.536C 485.152,231.696, 470.72,242.784, 468.592,244.496z
			 M 256.256,123.44c-50.592,0.336-91.504,41.44-91.504,92.096s 40.912,91.76, 91.504,92.080c 50.72-0.32, 91.488-41.424, 91.488-92.080
			S 306.992,123.776, 256.256,123.44z"  />
<glyph unicode="&#xe000;" d="M 358.432,233.312c-19.344-44.208-61.536-81.184-102.448-81.184c-49.952,0-86.24,36.544-105.584,80.736
		C 37.92,174.592, 52.096,27.12, 52.096,27.12c0-20.192, 15.904-23.12, 34.592-23.12l 169.296,0 l 169.040,0 c 18.72,0, 34.672,2.944, 34.672,23.12
		C 459.696,27.12, 470.928,175.024, 358.432,233.312zM 255.984,176.096c 56.336,0, 101.12,80.64, 101.12,147.264c0,66.64-45.664,120.656-102,120.656
		c-56.336,0-102.016-54.016-102.016-120.656C 153.072,256.72, 199.632,176.096, 255.984,176.096z"  />
<glyph unicode="&#xe001;" d="M 273.36,324.208l 141.36-141.36c 12.96-12.96, 12.96-34.176,0-47.12l-11.792-11.792c-12.944-12.96-34.16-12.96-47.104,0
	l-107.872,107.872l-107.872-107.872c-12.96-12.96-34.176-12.96-47.104,0l-11.792,11.792c-12.96,12.96-12.96,34.176,0,47.12l 141.376,141.36
	c 6.944,6.96, 16.272,10.048, 25.408,9.552C 257.072,334.256, 266.4,331.152, 273.36,324.208z"  />
<glyph unicode="&#xe002;" d="M 339.536,57.92c 7.168,13.168, 45.744,87.872, 44.736,156.272c0,0, 0.672,23.024-16.592,30.464
		c-5.616,2.416-38.304,16.336-41.888,19.936c0,0-19.872,42.864-35.936,62.256c-37.184,44.928-66.848,67.904-75.424,74.24
		c-5.44,4.016-17.952,8.912-43.456,35.552C 150.912,457.584, 149.408,479.744, 134.416,480C 132.928,480.032, 132.64,479.888, 129.424,478.896
		C 121.392,476.464, 85.296,447.808, 115.040,399.904c0,0, 14.944-23.536, 40.72-45.52c0,0, 35.168-30.832-3.584-53.888c0,0-25.136-12.864-55.712-11.152
		c-12.432,0.688-31.712,3.984-37.68,5.168c-5.984,1.2-25.952,7.344-41.904-2.384c-30.784-18.8-13.184-187.168, 57.696-244.992
		c 26.72-21.792, 118.304-29.184, 168.576-14.816c0,0, 28.56,9.984, 43.12,8.368c 20.352-2.288, 32.784,1.296, 32.784,1.296
		S 332.336,44.752, 339.536,57.92zM 452.992,245.664c-24.368,3.808-46.816,7.584-51.584,8.112c-4.128,0.464-4.496-5.040-1.040-6.656
		c 4.256-2.448, 10.176-9.792, 11.888-24.976c 0.112-11.008, 8.912-81.776-49.792-179.072c-13.552-22.432-23.936-21.664-41.28-23.232
		c 0.784-10.496, 16.784-16.288, 16.784-16.288s 51.024-16.56, 82.016-6.576c0,0, 45.712,9.68, 73.984,94.64c 7.84,23.6, 13.456,47.92, 15.904,68.624
		c 1.184,9.92, 1.872,18.944, 2.096,26.48C 513.088,224.96, 483.472,240.256, 452.992,245.664z"  />
<glyph unicode="&#xe004;" d="M 446.96,480l-104.672,0 L 188.96,480 L 84.288,480 C 73.488,480, 62.4,467.088, 62.4,456.288L 62.4-2.56 c0-10.816, 11.072-24.24, 21.888-24.24l 104.672,0 
		l 153.328,0 l 104.672,0 c 10.8,0, 23.072,13.424, 23.072,24.24L 470.032,456.288 C 470.032,467.088, 457.744,480, 446.96,480z M 268.544-2
		c-12.336,0-22.336,10.016-22.336,22.352c0,12.304, 10,22.32, 22.336,22.32c 12.32,0, 22.336-10.016, 22.336-22.32
		C 290.88,8.016, 280.864-2, 268.544-2z M 413.808,87.264L 115.184,87.264 L 116.384,421.040l 297.424,0 L 413.808,87.264 z"  />
<glyph unicode="&#xe005;" d="M 452.080,455.92c0,0-26.208-25.552-44.336-43.504c-92.672,67.68-223.2,60.016-306.896-23.664
		c-48.816-48.832-71.6-113.6-68.864-177.568l 79.088,0 c-2.8,43.712, 12.192,88.32, 45.616,121.728c 52.64,52.656, 133.136,60.16, 193.952,22.96
		c-20.576-20.4-44.352-44.24-44.352-44.24c-16.624-19.968, 2.048-31.472, 11.536-31.184l 111.168,0.032c 5.856,0, 10.672-0.032, 10.672-0.032
		s 4.832,0, 10.72,0l 21.6,0 c 5.872,0, 10.656,4.784, 10.672,10.688L 482.656,444 C 483.296,457.968, 467.936,471.536, 452.080,455.92zM 78.688-6.992c0,0, 26.208,25.568, 44.336,43.52c 92.672-67.68, 223.216-60.032, 306.912,23.664
		c 48.816,48.832, 71.616,113.616, 68.88,177.568l-79.088,0 c 2.8-43.728-12.208-88.304-45.616-121.728c-52.64-52.64-133.136-60.16-193.968-22.976
		c 20.592,20.4, 44.368,44.256, 44.368,44.256c 16.64,19.952-2.048,31.472-11.552,31.184l-111.152-0.032c-5.872,0-10.672,0.032-10.672,0.032
		s-4.848,0-10.736,0L 58.832,168.496 c-5.888,0-10.672-4.816-10.672-10.704l0-152.848 C 47.472-9.008, 62.832-22.576, 78.688-6.992z"  />
<glyph unicode="&#xe006;" d="M 390.368,426.32c0,9.984-8.096,18.048-18.064,18.048L 134.304,444.368 c-9.968,0-18.048-8.064-18.048-18.048l0-423.328 
		c0-9.952, 8.080-18.032, 18.048-18.032L 372.32-15.040 c 9.968,0, 18.064,8.080, 18.064,18.032L 390.384,426.32 z M 253.184,3.984c-11.728,0-21.248,9.504-21.248,21.232
		c0,11.696, 9.52,21.2, 21.248,21.2s 21.216-9.504, 21.216-21.2C 274.4,13.488, 264.912,3.984, 253.184,3.984z M 346.544,94.368L 160.064,94.368 L 160.064,385.152 
		l 186.48,0 L 346.544,94.368 z"  />
<glyph unicode="&#xe007;" d="M 429.088,157.76l 57.712,172.736c 2.896,8.304, 0.704,13.296-1.648,16.592c-5.984,8.432-18.272,8.512-20.672,8.512
	L 138.336,355.664L 129.632,396.96C 127.28,406.704, 120.336,416, 106.336,416L 14.672,416 C 5.168,416,0,411.552,0,402.672l0-23.84 C0,370.24, 5.152,368, 15.008,368l 77.392,0 
	l 59.232-251.472c-9.408-9.968-14.528-24.496-14.528-38.064c0-29.824, 23.744-57.312, 54.064-57.312c 28.656,0, 50.112,26.848, 53.6,42.848l 115.36,0 
	c 3.488-16, 20.88-43.472, 53.584-43.472c 29.792,0, 54.048,25.808, 54.048,55.6c0,29.632-18,55.872-53.744,55.872c-14.848,0-32.496-8-40.688-20
	l-141.744,0 c-10.288,16-24.336,20.976-38.544,21.52L 191.088,144l 215.664,0 C 423.008,144, 426.208,149.92, 429.088,157.76z M 170.176,76.784
	c0,11.344, 9.232,20.576, 20.576,20.576c 11.312,0, 20.528-9.232, 20.528-20.576s-9.216-20.56-20.528-20.56
	C 179.408,56.224, 170.176,65.44, 170.176,76.784z M 414.128,56.464c-11.2,0-20.32,9.12-20.32,20.32c0,11.2, 9.104,20.32, 20.32,20.32
	c 11.216,0, 20.32-9.104, 20.32-20.32C 434.432,65.6, 425.344,56.464, 414.128,56.464z"  />
<glyph unicode="&#xe008;" d="M 461.152,159.28c-10.304,5.904-15.504,26.336-11.568,45.408c0,0,0,0,0,18.368c0,19.264-0.16,20.032-0.16,20.032
			c-4.24,19.504, 0.912,40.384, 11.408,46.4c 10.496,6, 10.992,25.088, 1.088,42.416l-10.72,18.736C 441.312,368, 424.496,377.232, 413.84,371.184
			c-10.624-6.016-32.144-0.832-47.792,11.568l-33.76,19.408c-18.448,7.616-33.568,23.728-33.568,35.84S 282.368,460, 262.416,460l-21.008,0 
			c-19.968,0-36.304-9.744-36.304-21.664c0-11.904-15.184-27.712-33.712-35.104l-35.328-19.36c-15.616-12.448-36.64-17.92-46.72-12.16
			C 79.248,377.456, 62.88,368, 52.976,350.656L 42.272,331.92c-9.92-17.328-9.968-36.128-0.128-41.744c 9.84-5.632, 14.352-26.192, 10-45.664
			c0,0-0.368-1.664-0.368-21.424c0-18.88,0-18.944,0-18.944c 4.144-19.52-0.352-40-10.016-45.536c-9.648-5.504-9.44-24.192, 0.464-41.536
			l 10.704-18.752c 9.904-17.344, 25.888-27.024, 35.488-21.568c 9.616,5.504, 30.24-0.24, 45.824-12.736l 37.168-21.008
			c 18.512-7.472, 33.68-22.896, 33.68-34.304c0-11.376, 16.336-20.704, 36.304-20.704l 21.008,0 c 19.968,0, 36.304,9.472, 36.304,21.056
			c0,11.584, 15.072,27.312, 33.52,35.008l 35.616,21.040c 15.632,12.448, 36.688,17.904, 46.848,12.16c 10.128-5.776, 26.528,3.68, 36.432,21.024
			l 10.736,18.752C 471.776,134.4, 471.472,153.408, 461.152,159.28z M 249.968,96.256c-71.104,0-128.72,57.632-128.72,128.72
			c0,71.088, 57.632,128.72, 128.72,128.72c 71.088,0, 128.72-57.648, 128.72-128.72C 378.688,153.872, 321.040,96.256, 249.968,96.256zM 197.568,226.256A53.696,53.696 180 1 1 304.96,226.256A53.696,53.696 180 1 1 197.568,226.256z"  />
<glyph unicode="&#xe009;" d="M 23.024,229.76c-18.624-9.744-17.856-24.048, 1.664-31.808l 57.808-22.864c 19.52-7.728, 49.072-3.52, 65.648,9.424
			L 399.136,382.48c 16.512,12.992, 18.288,11.072, 3.92-4.272L 204.656,165.792c-14.384-15.328-10.128-34.096, 9.456-41.664l 6.768-2.656
			c 19.584-7.584, 51.52-20.304, 70.976-28.192l 64.128-26.128c 19.472-7.904, 35.392-14.464, 35.408-14.576c 0.016-0.128, 0.112-0.496, 0.208-0.528
			c 0.128-0.032, 4.704,16.528, 10.208,36.784L 499.504,448c 5.52,20.288-5.184,28.88-23.808,19.12L 23.024,229.76zM 181.68-5.344c-1.152-3.424, 39.52,58.912, 39.52,58.912c 11.488,17.568, 4.976,38.48-14.48,46.432l-44.336,18.176
			c-19.44,7.936-28.752-1.392-20.704-20.816C 141.68,97.36, 182.848-1.824, 181.68-5.344z"  />
<glyph unicode="&#xe00a;" d="M 260.592,271.504c 30.384,53.28, 22.976,122.224-22.448,167.648c-54.496,54.48-142.8,54.464-197.28,0
		c-54.48-54.464-54.48-142.8,0-197.264c 44.768-44.768, 112.368-52.672, 165.28-23.856l 78.512-78.528l 53.984,54L 260.592,271.504z M 206.512,273.52
		c-37.008-37.008-97.008-37.008-134,0c-37.008,36.992-37.008,96.992,0,133.984c 36.992,37.008, 96.992,37.008, 134,0
		C 243.504,370.512, 243.504,310.512, 206.512,273.52zM 490.464,71.664l-100.496,100.496c-8.192,8.208-21.6,8.208-29.76,0l-55.84-55.824c-8.176-8.176-8.176-21.6,0-29.76
		l 100.496-100.48c 8.192-8.208, 21.584-8.208, 29.776,0l 55.824,55.808C 498.656,50.112, 498.656,63.488, 490.464,71.664z"  />
<glyph unicode="&#xe00b;" d="M 348.144,249.424l-141.36,141.36c-12.96,12.96-34.176,12.96-47.12,0L 147.856,378.992c-12.96-12.944-12.96-34.16,0-47.104
	L 255.728,224l-107.872-107.872c-12.96-12.96-12.96-34.176,0-47.104l 11.792-11.792c 12.96-12.96, 34.176-12.96, 47.12,0l 141.36,141.376
	c 6.96,6.944, 10.048,16.272, 9.552,25.408C 358.192,233.136, 355.088,242.464, 348.144,249.424z"  />
<glyph unicode="&#xe00c;" d="M 320.784,221.696l 105.072,105.056c 15.392,15.408, 15.392,40.624,0,56.032L 411.84,396.8c-15.408,15.424-40.624,15.424-56.016,0
	l-105.072-105.072L 145.664,396.8c-15.392,15.408-40.608,15.408-56.016,0L 75.648,382.8c-15.392-15.408-15.392-40.624,0-56.032l 105.056-105.056l-105.056-105.072
	c-15.392-15.408-15.392-40.608,0-56.016l 14.016-14.016c 15.408-15.408, 40.624-15.408, 56.016,0l 105.072,105.056l 105.072-105.056
	c 15.392-15.408, 40.608-15.408, 56.016,0l 14.016,14.016c 15.392,15.408, 15.392,40.608,0,56.016L 320.784,221.696z"  />
<glyph unicode="&#xe00d;" d="M 406.992,52.304c 48.896,48.88, 70.928,114.272, 66.576,178.176c-25.616-0.208-51.2-0.336-76.816-0.56
	c 4.304-44.080-10.224-89.632-43.968-123.376c-59.936-59.904-157.040-59.904-216.944,0c-59.92,59.904-59.92,156.992,0,216.912
	c 51.104,51.12, 129.28,58.432, 188.352,22.288c-20.016-19.792-43.584-43.216-43.584-43.216c-16.96-18, 0.272-29.92, 11.696-30l 149.664,0 
	c 5.712,0, 10.352,4.64, 10.368,10.368L 452.336,431.312 c 0.704,14-14.672,26.976-29.76,11.872c0,0-25.344-25.088-42.96-42.528
	C 289.664,466.368, 162.88,458.928, 81.616,377.68c-89.856-89.856-89.856-235.52,0-325.376C 171.456-37.552, 317.136-37.552, 406.992,52.304z"  />
<glyph unicode="&#xe00e;" d="M 490.128,470.944L 19.216,470.944 C 8.64,470.944,0,462.272,0,451.712L0-12.8 C0-23.344, 8.64-32, 19.216-32l 470.912,0 
		c 10.56,0, 19.2,8.656, 19.2,19.2L 509.328,451.712 C 509.328,462.272, 500.688,470.944, 490.128,470.944z M 455.104,90.352L 48.624,90.352 L 48.624,419.088 l 406.496,0 L 455.12,90.352 zM 70.464,335.2A56.464,56.464 180 1 1 183.392,335.2A56.464,56.464 180 1 1 70.464,335.2zM 328.784,306.48c-9.92,17.776-26.912,18.208-37.728,0.928l-53.168-84.944c-10.816-17.28-32.352-22.752-47.888-12.192
		c-15.536,10.576-39.008,6.496-52.192-9.008l-52.976-62.432c-13.184-15.568-7.296-28.272, 13.072-28.272l 303.328,0 c 20.368,0, 28.912,14.544, 18.992,32.352
		L 328.784,306.48z"  />
<glyph unicode="&#xe00f;" d="M 482.096,442.896L 29.552,442.896 c-9.776,0-17.248-8.416-17.248-18.24l0-359.744 c0-9.808, 7.472-18.208, 17.248-18.208l 143.792,0 l0-14.816 
	c0-16.832, 13.584-30.784, 30.416-30.784l 107.056,0 c 16.816,0, 30.688,13.952, 30.688,30.784l0,14.816 l 140.592,0 c 9.776,0, 17.6,8.384, 17.6,18.208L 499.696,424.656 
	C 499.68,434.464, 491.872,442.896, 482.096,442.896z M 236.816,94.848c0,11.92, 9.696,21.664, 21.664,21.664c 12,0, 21.68-9.728, 21.68-21.664
	c0-12-9.68-21.664-21.68-21.664C 246.512,73.168, 236.816,82.848, 236.816,94.848z M 456.4,158.288L 55.584,158.288 L 55.584,404 l 400.816,0 L 456.4,158.288 z"  />
<glyph unicode="&#xe010;" d="M 217.856,369.392L 217.856,368.96L 218.128,369.28 	zM 256.992,453.552c-124.976,0-226.672-101.68-226.672-226.672c0-124.992, 101.696-226.672, 226.672-226.672
		c 124.992,0, 226.688,101.664, 226.688,226.672C 483.664,351.872, 381.968,453.552, 256.992,453.552z M 464.080,226.88c0-3.968-0.352-7.84-0.592-11.76
		c-1.456,3.68-3.664,8.48-4.192,10.544c-0.768,3.136-5.456,14.064-5.456,14.064s-4.688,6.24-7.808,7.808
		c-3.104,1.568-5.456,5.472-10.928,8.576c-5.472,3.136-7.792,4.688-12.464,4.688c-4.704,0-9.36,6.256-14.848,9.376
		c-5.472,3.104-6.24,1.552-6.24,1.552s 6.24-9.36, 6.24-11.696c0-2.336, 7.008-6.24, 14.064-4.672c0,0, 4.672-8.592, 7.008-10.928
		c 2.336-2.336-0.784-4.688-5.456-7.808c-4.688-3.104-3.904-2.336-6.272-4.672c-2.336-2.336-10.128-6.272-12.48-7.808
		c-2.336-1.552-11.696-6.24-16.368-1.552c-2.288,2.256-1.584,7.008-3.12,10.144c-1.568,3.12-17.952,27.312-25.76,38.224
		c-1.36,1.92-4.688,7.84-7.008,9.36c-2.336,1.584, 5.472,1.584, 5.472,1.584s0,5.472-0.784,9.36
		c-0.8,3.904, 0.784,9.36, 0.784,9.36s-7.808-4.672-10.176-6.24c-2.32-1.568-4.672,3.104-7.776,7.024
		c-3.12,3.888-6.256,8.592-7.024,12.496c-0.784,3.888, 3.904,5.456, 3.904,5.456l 7.008,3.888c0,0, 8.592,1.552, 14.064,0.784
		c 5.456-0.784, 14.032-1.568, 14.032-1.568s 2.336,5.472-0.784,7.808C 368,332.608, 360.96,336.496, 357.824,335.712
		c-3.104-0.768, 1.552,3.904, 5.44,7.024l-8.64,1.568c0,0-7.856-3.904-10.208-4.688c-2.336-0.768-6.4-2.336-9.536-6.24
		c-3.104-3.904, 1.248-9.36-1.872-10.928c-3.104-1.568-5.216-2.336-7.568-3.104c-2.336-0.784-9.76,0-9.76,0
		c-8.064,0-2.896-7.36-0.8-9.968l-6.24,7.616l-4.624,10.944c0,0-6.656,4.672-9.776,6.224c-3.12,1.568-12.736,7.024-12.736,7.024
		l 0.672-7.024l 9.040-9.152l 0.8-0.208l 4.704-6.24l-10.384-0.784L 286.336,323.936 c-9.792,2.368-7.232,4.8-8.336,5.552
		c-2.32,1.552-7.744,5.472-7.744,5.472s-9.184-1.568-11.536-2.352c-2.352-0.784-3.008-3.12-7.664-4.672
		c-4.704-1.568-6.816-3.904-8.368-6.24s-6.64-9.36-9.728-12.48c-3.136-3.136-8.928-2.336-11.264-2.336
		c-2.352,0-13.616,3.12-13.616,3.12L 208.080,323.232 c0,0, 1.52,7.424, 0.752,9.76l 6.832,1.152l 11.408,2.352L 230.4,338.848l 4.8,6.24
		c0,0-5.392,3.904-1.504,9.36c 1.872,2.624, 8.608,3.12, 11.728,5.456c 3.104,2.336, 7.824,3.904, 7.824,3.904s 5.472,4.672, 10.928,10.144
		c0,0, 3.904,2.352, 8.576,3.92c0,0, 13.28-11.712, 15.632-11.712s 10.928,5.456, 10.928,5.456s 2.336,7.008, 1.568,9.36
		c-0.784,2.336-4.688,10.144-4.688,10.144s-2.336-3.904-4.672-7.024s-3.904-7.024-3.904-7.024s-10.928,0.752-11.696,3.088
		c-0.8,2.352-2.336,6.208-3.136,8.528c-0.752,2.352-7.008,2.272-11.664,0.704c-4.704-1.568, 0.752,8.416, 0.752,8.416
		s 4.704,5.888, 7.808,5.888s 10.16,4, 13.248,4.768c 3.136,0.784, 12.528,4.352, 16.4,4.352c 3.904,0, 8.592-1.68, 10.944-1.68
		s 11.696,0, 11.696,0l 16.368,1.312c0,0, 14.064-5.2, 9.36-8.336c0,0, 5.488-3.376, 7.824-5.712c 2.192-2.208, 7.856,2.032, 11.104,3.84
		C 425.024,365.6, 464.080,300.784, 464.080,226.88z M 91.728,348.992c0-3.12-4.256-3.872,0-11.712c 5.44-10.144, 0.768-14.832, 0.768-14.832
		s-13.28-9.36-15.616-10.928c-2.336-1.568-8.576-10.144-4.688-7.792c 3.904,2.336, 8.576,4.672, 4.688-1.568
		c-3.904-6.256-10.928-16.384-12.48-20.304S 55.040,268.608, 55.040,263.936c0-4.688-3.12-14.064-2.336-17.968c 0.528-2.72-1.2-10.736-2.56-14.032
		c 1.056,43.872, 15.824,84.304, 40.208,117.376C 91.152,349.2, 91.728,348.992, 91.728,348.992z M 116.816,378.912c 19.088,17.616, 41.456,31.664, 66.128,41.168
		c-2.432-3.12-5.376-6.32-5.376-6.32s-5.456,0.016-15.616-10.928C 151.808,391.904, 154.16,395.024, 151.808,391.92S 150.256,388.016, 144.784,384.096
		C 139.328,380.208, 136.992,375.52, 136.992,375.52L 128.384,372.4L 121.392,375.52c0,0-6.272-2.352-5.488,0.784C 116.128,377.136, 116.448,378, 116.816,378.912z
		 M 210.336,360.704l-3.104,4.672l 3.104,7.024l 7.52-3.008L 217.856,383.328 l 7.184,3.888l 5.968-8.576l 9.184-10.16l-6.096-4.672l-16.256-3.12L 217.84,368.96 
		L 210.336,360.704z M 311.808,287.344c 1.824,1.44, 7.792-2.336, 7.792-2.336s 19.504-3.904, 22.624-6.24c 3.136-2.352, 8.592-3.92, 10.16-6.272
		c 1.568-2.336, 7.008-9.36, 7.776-11.696c 0.8-2.336, 4.704-10.944, 5.488-14.048c 0.784-3.12, 3.12-10.928, 5.456-14.832
		c 2.336-3.92, 15.616-21.072, 20.288-28.88l 14.080,2.336c0,0-1.584-7.008-3.136-9.36c-1.552-2.336-6.24-8.576-8.576-11.696
		c-2.352-3.12-5.456-7.808-10.144-11.696c-4.672-3.888-4.704-7.792-7.024-10.928c-2.336-3.12-5.472-10.144-5.472-10.144
		s 1.568-15.616, 2.336-18.736S 368,121.104, 368,121.104l-7.040-7.040l-9.408-12.464l 0.768-11.696c0,0-7.104-5.488-11.024-8.592
		c-3.872-3.104-3.264-5.456-6.384-8.592c-3.104-3.104-15.312-8.576-18.432-9.36s-20.336-3.12-20.336-3.12l0,7.008 l-0.352,7.808
		c0,0-2.368,9.36-4.72,12.48s-1.328,7.824-5.232,11.712c-3.904,3.904-5.344,7.008-6.128,9.376c-0.784,2.336, 0.848,9.344, 0.848,9.344
		s 3.152,8.592, 4.704,11.712c 1.568,3.12, 0.016,7.792-1.552,10.928s-2.32,10.944-2.32,13.264c0,2.336-6.272,6.256-8.608,8.592
		c-2.336,2.336-1.552,5.472-1.552,8.56c0,3.152-2.336,10.16-1.568,15.632c 0.784,5.456-7.008,1.568-11.696,0
		c-4.688-1.568-7.792,1.568-7.792,6.256s-8.576,0.768-14.048-2.336c-5.488-3.12-11.712-3.12-17.984-5.472
		c-6.224-2.336-9.328,2.336-9.328,2.336s-5.488,4.672-9.36,7.024c-3.92,2.336-7.824,7.008-10.96,10.912
		c-3.104,3.92-10.928,15.632-11.68,20.288c-0.784,4.704,0,7.84,0,13.296s0,8.576, 0.768,12.48c 0.784,3.904, 3.12,8.592, 5.472,12.496
		c 2.336,3.904, 10.928,8.576, 13.248,10.144c 2.336,1.552, 7.808,6.224, 7.808,9.36c0,3.12, 3.136,4.672, 4.672,7.808
		c 1.584,3.12, 7.040,10.912, 14.064,7.792c0,0, 6.224,0.768, 8.56,1.552s 8.576,3.104, 11.664,4.672c 3.12,1.568, 10.896,2.304, 10.896,2.304
		s 6.144-2.448, 8.48-2.448s 9.952,1.36, 9.952,1.36s 3.52-11.312, 3.52-13.664s 2.336-4.672, 6.256-6.24
		C 286.048,284.992, 304.016,281.088, 311.808,287.344z M 401.568,134.368c0-2.336-0.784-8.592-1.568-11.712c-0.816-3.12-2.352-8.592-3.12-11.68
		c-0.784-3.136-4.688-9.376-7.008-10.944c-2.336-1.568-6.256-6.256-8.576-7.024c-2.336-0.784-3.92,5.472-3.136,8.592
		c 0.8,3.12, 4.688,11.696, 4.688,11.696s 0.784,4.672, 1.552,7.808c 0.8,3.104, 10.16,7.008, 10.16,7.008l 6.256,11.712
		C 400.784,139.84, 401.568,136.688, 401.568,134.368z M 55.232,180.864c 1.008-0.256, 2.448-0.992, 4.48-2.8c 2.944-2.56, 4.688-3.872, 8.592-5.456
		c 3.888-1.584, 5.456-3.888, 10.144-6.24c 4.688-2.352, 3.136-0.8, 9.36-7.808c 6.256-7.008, 5.472-7.008, 7.024-10.928
		s 3.904-7.792, 5.472-10.16c 1.568-2.336, 6.24-3.888, 8.576-5.456s 6.24-3.12, 8.576-3.12c 2.352,0, 9.376-7.024, 13.28-7.792
		c 3.904-0.8, 3.904-8.608, 3.904-8.608L 130.752,101.6l-3.136-11.696l 3.136-9.36c0,0-4.704-3.92-7.792-3.92
		c-2.88,0-3.856-1.824-7.008-0.96C 86.192,103.44, 64.592,139.792, 55.232,180.864z"  />
<glyph unicode="&#xe011;" d="M 421.216,270.032c0,92.624-75.072,167.696-167.68,167.696c-92.624,0-167.696-75.072-167.696-167.696
		c0-16.576, 2.448-32.576, 6.928-47.728c 23.872-96.56, 161.52-204.56, 161.52-204.56s 155.504,121.936, 164.656,222.56l-0.4,0.080
		C 420.272,250.016, 421.216,259.92, 421.216,270.032z M 255.808,232.688c-37.888,0-68.608,30.72-68.608,68.608c0,37.888, 30.72,68.608, 68.608,68.608
		c 37.872,0, 68.592-30.72, 68.592-68.608C 324.4,263.408, 293.68,232.688, 255.808,232.688z"  />
<glyph unicode="&#xe012;" d="M 71.056,358.896l 160.544-127.168c 7.28-5.76, 17.312-8.32, 27.056-7.84c 9.744-0.48, 19.776,2.064, 27.056,7.84
		l 160.544,127.168c 12.832,10.144, 9.92,18.432-6.4,18.432L 258.672,377.328 L 77.472,377.328 C 61.136,377.328, 58.24,369.024, 71.056,358.896zM 457.84,325.344L 282.4,192.16c-6.56-4.944-15.152-7.344-23.728-7.248c-8.576-0.096-17.168,2.32-23.728,7.248
		L 59.504,325.344c-13.024,9.872-23.68,4.576-23.68-11.76l0-218.544 c0-16.336, 13.376-29.696, 29.712-29.696l 193.136,0 l 193.136,0 
		c 16.336,0, 29.712,13.376, 29.712,29.696L 481.52,313.584 C 481.536,329.92, 470.88,335.216, 457.84,325.344z"  />
<glyph unicode="&#xe013;" d="M 415.12,323.12c0-12.336-10.096-22.416-22.432-22.416L 146,300.704 c-12.336,0-22.432,10.080-22.432,22.416L 123.568,359.568 
		c0,12.336, 10.096,22.432, 22.432,22.432l 246.688,0 c 12.336,0, 22.432-10.096, 22.432-22.432L 415.12,323.12 zM 415.12,76.432c0-12.336-10.096-22.432-22.432-22.432L 146,54 c-12.336,0-22.432,10.096-22.432,22.432l0,36.432 
		c0,12.336, 10.096,22.416, 22.432,22.416l 246.688,0 c 12.336,0, 22.432-10.080, 22.432-22.416L 415.12,76.432 zM 415.12,199.776c0-12.336-10.096-22.432-22.432-22.432L 146,177.344 c-12.336,0-22.432,10.096-22.432,22.432l0,36.432 
		c0,12.336, 10.096,22.432, 22.432,22.432l 246.688,0 c 12.336,0, 22.432-10.096, 22.432-22.432L 415.12,199.776 z"  />
<glyph unicode="&#xe014;" d="M 456.976,412.48l-1.808,1.824c-26.784,26.768-70.32,26.768-97.088,0l-95.248-95.248
	c-19.504-19.488-24.624-47.872-15.696-72.224l-17.296-17.296c-24.336,8.928-52.72,3.808-72.224-15.696l-95.248-95.264
	c-26.768-26.752-26.768-70.32,0-97.072l 1.824-1.84c 26.768-26.752, 70.32-26.752, 97.072,0l 95.248,95.264c 19.504,19.52, 24.624,47.888, 15.712,72.24
	l 17.28,17.28c 24.336-8.912, 52.72-3.792, 72.224,15.696l 95.248,95.264C 483.744,342.16, 483.744,385.712, 456.976,412.48z M 136.352,54.112
	c-10.448-10.432-27.456-10.432-37.92,0l-1.648,1.648c-10.448,10.448-10.448,27.504,0,37.92l 66.8,66.8c-5.008-11.024-3.072-24.528, 5.984-33.584
	c 9.056-9.040, 22.56-10.992, 33.6-5.968L 136.352,54.112z M 422.544,340.32l-66.144-66.144c 4.992,11.040, 3.040,24.512-6,33.568
	s-22.528,10.992-33.584,5.984l 66.144,66.16c 10.448,10.448, 27.472,10.448, 37.936,0l 1.648-1.648C 432.992,367.76, 432.992,350.752, 422.544,340.32z"  />
<glyph unicode="&#xe015;" d="M 360.528,453.216c-45.424,0-86.48-23.792-105.568-60.88c-19.088,37.088-60.656,60.88-106.080,60.88
	c-71.008,0-166.192-57.232-122.848-213.36c 49.536-152.608, 228.928-242.336, 228.928-242.304c0-0.032, 179.12,89.696, 228.656,242.304
	C 527.008,395.984, 431.536,453.216, 360.528,453.216z"  />
<glyph unicode="&#xe016;" d="M 147.728,249.424l 141.36,141.36c 12.96,12.96, 34.176,12.96, 47.12,0l 11.792-11.792c 12.96-12.944, 12.96-34.16,0-47.104
	L 240.144,224l 107.872-107.872c 12.96-12.96, 12.96-34.176,0-47.104l-11.792-11.792c-12.96-12.96-34.176-12.96-47.12,0l-141.36,141.376
	C 140.784,205.536, 137.68,214.864, 138.192,224C 137.68,233.136, 140.784,242.464, 147.728,249.424z"  />
<glyph unicode="&#xe017;" d="M 232.72,356.464C 232.72,371.664, 220.4,384, 205.184,384L 93.664,384 C 78.448,384, 66.112,371.664, 66.112,356.464l0-97.648 
		c0-15.216, 12.336-27.536, 27.536-27.536l 111.536,0 c 15.216,0, 27.536,12.336, 27.536,27.536L 232.72,356.464 zM 429.872,356.464c0,15.216-12.32,27.536-27.536,27.536l-111.536,0 c-15.216,0-27.536-12.336-27.536-27.536l0-97.648 
		c0-15.216, 12.32-27.536, 27.536-27.536l 111.536,0 c 15.216,0, 27.536,12.336, 27.536,27.536L 429.872,356.464 zM 232.72,173.184c0,15.216-12.336,27.536-27.536,27.536L 93.664,200.72 c-15.216,0-27.536-12.32-27.536-27.536l0-97.664 
		c0-15.2, 12.336-27.536, 27.536-27.536l 111.536,0 c 15.216,0, 27.536,12.336, 27.536,27.536L 232.736,173.184 zM 429.872,173.184c0,15.216-12.32,27.536-27.536,27.536l-111.536,0 c-15.216,0-27.536-12.32-27.536-27.536l0-97.664 
		c0-15.2, 12.32-27.536, 27.536-27.536l 111.536,0 c 15.216,0, 27.536,12.336, 27.536,27.536L 429.872,173.184 z"  />
<glyph unicode="&#xe018;" d="M 159.984,408.64c0,8.752-7.088,15.856-15.84,15.856L 58.672,424.496 c-8.768,0-15.856-7.088-15.856-15.856l0-85.488 
		c0-8.736, 7.088-15.84, 15.856-15.84l 85.472,0 c 8.752,0, 15.84,7.104, 15.84,15.84L 159.984,408.64 zM 307.296,408.64c0,8.752-7.088,15.856-15.856,15.856l-85.488,0 c-8.736,0-15.84-7.088-15.84-15.856l0-85.488 
		c0-8.736, 7.104-15.84, 15.84-15.84l 85.488,0 c 8.768,0, 15.856,7.104, 15.856,15.84L 307.296,408.64 zM 457.936,408.64c0,8.752-7.088,15.856-15.84,15.856l-85.472,0 c-8.768,0-15.856-7.088-15.856-15.856l0-85.488 
		c0-8.736, 7.088-15.84, 15.856-15.84l 85.472,0 c 8.752,0, 15.84,7.104, 15.84,15.84L 457.936,408.64 zM 159.984,264.688c0,8.752-7.088,15.84-15.84,15.84L 58.672,280.528 c-8.768,0-15.856-7.088-15.856-15.84L 42.816,179.2 
		c0-8.768, 7.088-15.84, 15.856-15.84l 85.472,0 c 8.752,0, 15.84,7.072, 15.84,15.84L 159.984,264.688 zM 307.296,264.688c0,8.752-7.088,15.84-15.856,15.84l-85.488,0 c-8.736,0-15.84-7.088-15.84-15.84L 190.112,179.2 
		c0-8.768, 7.104-15.84, 15.84-15.84l 85.488,0 c 8.768,0, 15.856,7.072, 15.856,15.84L 307.296,264.688 zM 457.936,264.688c0,8.752-7.088,15.84-15.84,15.84l-85.472,0 c-8.768,0-15.856-7.088-15.856-15.84L 340.768,179.2 
		c0-8.768, 7.088-15.84, 15.856-15.84l 85.472,0 c 8.752,0, 15.84,7.072, 15.84,15.84L 457.936,264.688 zM 159.984,117.392c0,8.736-7.088,15.84-15.84,15.84L 58.672,133.232 c-8.768,0-15.856-7.104-15.856-15.84l0-85.488 
		c0-8.752, 7.088-15.84, 15.856-15.84l 85.472,0 c 8.752,0, 15.84,7.088, 15.84,15.84L 159.984,117.392 zM 307.296,117.392c0,8.736-7.088,15.84-15.856,15.84l-85.488,0 c-8.736,0-15.84-7.104-15.84-15.84l0-85.488 
		c0-8.752, 7.104-15.84, 15.84-15.84l 85.488,0 c 8.768,0, 15.856,7.088, 15.856,15.84L 307.296,117.392 zM 457.936,117.392c0,8.736-7.088,15.84-15.84,15.84l-85.472,0 c-8.768,0-15.856-7.104-15.856-15.84l0-85.488 
		c0-8.752, 7.088-15.84, 15.856-15.84l 85.472,0 c 8.752,0, 15.84,7.088, 15.84,15.84L 457.936,117.392 z"  />
<glyph unicode="&#xe019;" d="M 457.904,340.672l-12.224,0 L 445.68,350.8 c0,17.616-14.368,31.84-32,31.84L 248.672,382.64 c-25.744,0-36.32-17.824-54.4-41.968L 54.24,340.672 
	c-20.176,0-36.768-16.608-36.768-36.8l0-201.824 c0-20.192, 16.592-36.704, 36.768-36.704l 403.664,0 c 20.176,0, 36.624,16.512, 36.624,36.704L 494.528,303.888 
	C 494.528,324.064, 478.080,340.672, 457.904,340.672z"  />
<glyph unicode="&#xe01a;" d="M 222.48,123.792L 81.12,265.152c-12.96,12.96-12.96,34.176,0,47.12l 11.792,11.792c 12.944,12.96, 34.16,12.96, 47.104,0
	l 107.872-107.872l 107.872,107.872c 12.96,12.96, 34.176,12.96, 47.104,0l 11.792-11.792c 12.96-12.96, 12.96-34.176,0-47.12l-141.376-141.36
	c-6.944-6.96-16.272-10.048-25.408-9.552C 238.768,113.744, 229.44,116.848, 222.48,123.792z"  />
<glyph unicode="&#xe01b;" d="M 481.2,375.904l-13.728,13.728c-15.104,15.12-39.824,15.12-54.928,0L 179.168,156.272L 96.368,239.040
	c-15.088,15.104-39.824,15.104-54.912-0.016l-13.728-13.712c-15.088-15.104-15.088-39.824,0-54.928l 123.904-124c 15.104-15.104, 39.824-15.104, 54.928,0
	L 481.2,320.992C 496.272,336.080, 496.272,360.8, 481.2,375.904z"  />
<glyph unicode="&#xe01c;" d="M 482.4,144.384c0,38.208-31.248,69.968-72.272,76.72c-0.768,12.16-3.344,24.4-7.696,36.448
	c-24.784,68.416-100.368,103.792-168.784,79.024c-41.248-14.928-70.48-48.32-81.776-87.456c-7.92,1.68-16.192,2.608-24.688,2.608
	c-57.936,0-104.496-41.52-104.496-92.704c0-47.568, 39.152-86.736, 93.136-92.080l0,0.304 l 287.904,0 l0-0.512 C 450.496,70.832, 482.4,104.032, 482.4,144.384z"  />
<glyph unicode="&#xe01d;" d="M 456.992,52.064l-32.928,90c 10.256,24.256, 15.92,50.944, 15.92,78.944C 440,333.12, 349.12,424, 236.992,424
		C 124.88,424, 34,333.12, 34,220.992c0-112.128, 90.88-203.008, 203.008-203.008c 48.096,0, 92.224,16.816, 127.008,44.752l 74.208-29.056
		C 454.592,27.248, 463.056,35.536, 456.992,52.064z M 136,195.008c-14.352,0-26,11.648-26,26s 11.648,26, 26,26
		s 26-11.648, 26-26S 150.352,195.008, 136,195.008z M 232,195.008c-14.352,0-26,11.648-26,26s 11.648,26, 26,26
		s 26-11.648, 26-26S 246.352,195.008, 232,195.008z M 328,195.008c-14.352,0-26,11.648-26,26s 11.648,26, 26,26
		s 26-11.648, 26-26S 342.352,195.008, 328,195.008z"  />
<glyph unicode="&#x20;" horiz-adv-x="256" />
</font>
</defs>
</svg>
